<?xml version="1.0" encoding="utf-8"?>
<!-- Generator: Adobe Illustrator 18.0.0, SVG Export Plug-In . SVG Version: 6.00 Build 0)  -->
<!DOCTYPE svg PUBLIC "-//W3C//DTD SVG 1.1//EN" "http://www.w3.org/Graphics/SVG/1.1/DTD/svg11.dtd">
<svg version="1.1" id="Layer_1" xmlns="http://www.w3.org/2000/svg" xmlns:xlink="http://www.w3.org/1999/xlink" x="0px" y="0px"
	 width="277px" height="444px" viewBox="0 0 277 444" enable-background="new 0 0 277 444" xml:space="preserve">
<path fill="#0BB7E4" d="M67.2,23h0.4l13.1,17l13.1-17h0.4v29h-1.7V29.2c0-1,0.1-2.5,0.1-2.5s-0.8,1.4-1.6,2.4L80.9,42.3h-0.5
	L70.3,29.1c-0.7-0.9-1.6-2.4-1.6-2.4s0.1,1.5,0.1,2.5V52h-1.7L67.2,23L67.2,23z M114.9,23h0.5l11.8,29h-1.8l-2.2-5.6h-16.1l-2.2,5.6
	h-1.8L114.9,23z M122.5,44.9L116,28.6c-0.4-1-0.9-2.6-0.9-2.6s-0.4,1.6-0.9,2.6L107.6,45L122.5,44.9L122.5,44.9z M153.6,52h-2.1
	l-6.1-8.3c-1.1,0.3-2.3,0.4-3.6,0.4h-4.1V52H136V23h5.9c7.9,0,11.6,4.7,11.6,10.6c0,4.3-2,7.9-6.2,9.6L153.6,52z M141.7,42.6
	c7.4,0,10-4.2,10-9s-2.6-9-10-9h-3.9v18H141.7L141.7,42.6z M167,38.9L179.6,23h2l-11.3,14.4L182.7,52h-2.2l-11.3-13.3l-3.7,4.6V52
	h-1.8V23h1.8v15.5c0,1.2-0.1,2.6-0.2,3.3C165.8,40.7,166.7,39.3,167,38.9 M191.3,23h17v1.5h-15.2V40h13.6v1.5h-13.6v8.9h15.8V52
	h-17.6V23L191.3,23z M236,52h-2.1l-6.1-8.3c-1.1,0.3-2.3,0.4-3.6,0.4h-4.1V52h-1.8V23h5.9c7.9,0,11.6,4.7,11.6,10.6
	c0,4.3-2,7.9-6.2,9.6L236,52z M224,42.6c7.4,0,10-4.2,10-9s-2.6-9-10-9h-3.9v18H224L224,42.6z"/>
<polygon fill="#0BB7E4" points="70,9.9 67,9.9 67,9 74.1,9 74.1,9.9 71.1,9.9 71.1,19 70,19 "/>
<polygon fill="#0BB7E4" points="76.7,9 77.7,9 77.7,14.6 83,14.6 83,9 84.1,9 84.1,19 83,19 83,15.6 77.7,15.6 77.7,19 76.7,19 "/>
<polygon fill="#0BB7E4" points="87.5,9 93.5,9 93.5,9.9 88.6,9.9 88.6,14.6 93,14.6 93,15.6 88.6,15.6 88.6,18.1 93.7,18.1 93.7,19 
	87.5,19 "/>
<rect x="54" fill="#0BB7E4" width="1" height="76"/>
<path fill="#0BB7E4" d="M14.5,20.9c0.2-2.6,0.6-4.7,1.2-6.4s1.4-2.9,2.4-3.7s2.3-1.2,4-1.2s3,0.4,4,1.2s1.8,2.1,2.4,3.7
	c0.6,1.7,1,3.8,1.2,6.4c0.2,2.2,0.3,4.8,0.3,7.7h5.8c-0.1-1.8-0.2-3.8-0.5-5.7c-0.4-2.5-1.1-4.8-2.1-6.9s-2.4-3.8-4.2-5.2
	c-1.8-1.3-4.1-2-6.9-2s-5.1,0.7-6.9,2C13.4,12.2,12,13.9,11,16s-1.7,4.4-2.1,6.9c-0.3,2-0.5,3.9-0.5,5.7h5.8
	C14.2,25.6,14.3,23.1,14.5,20.9"/>
<path fill="#0BB7E4" d="M29.5,39.4c-0.2,2.6-0.6,4.7-1.2,6.4s-1.4,2.9-2.4,3.7s-2.3,1.2-4,1.2s-3-0.4-4-1.2s-1.8-2.1-2.4-3.7
	c-0.6-1.7-1-3.8-1.2-6.4c-0.2-2.2-0.3-4.8-0.3-7.7H8.4c0.1,1.9,0.2,3.8,0.5,5.7c0.4,2.5,1.1,4.8,2.1,6.9c1,2.1,2.4,3.8,4.2,5.2
	s4.1,2,6.9,2s5.1-0.7,6.9-2s3.2-3.1,4.2-5.2c1-2.1,1.7-4.4,2.1-6.9c0.3-2,0.5-3.9,0.5-5.7H30C29.8,34.6,29.7,37.2,29.5,39.4"/>
<polygon fill="#0BB7E4" points="99,60.1 99.7,60.1 101.2,64.9 102.7,60.1 103.3,60.1 104.8,64.9 106.3,60.1 107,60.1 105,65.9 
	104.5,65.9 103,61.2 101.5,65.9 101,65.9 "/>
<path fill="#0BB7E4" d="M110.2,60.1h0.6l2.5,5.8h-0.7l-0.6-1.5h-3l-0.7,1.5h-0.6L110.2,60.1z M111.7,63.8l-1.2-3l-1.3,3H111.7z"/>
<polygon fill="#0BB7E4" points="115.9,60.7 114.1,60.7 114.1,60.1 118.4,60.1 118.4,60.7 116.5,60.7 116.5,65.9 115.9,65.9 "/>
<polygon fill="#0BB7E4" points="120.3,60.1 124.3,60.1 124.3,60.7 120.9,60.7 120.9,62.7 123.9,62.7 123.9,63.3 120.9,63.3 
	120.9,65.3 124.3,65.3 124.3,65.9 120.3,65.9 "/>
<path fill="#0BB7E4" d="M126.3,60.1h2.4c0.7,0,1.2,0.2,1.6,0.6c0.3,0.3,0.4,0.7,0.4,1.1l0,0c0,1-0.6,1.5-1.5,1.7l1.7,2.4h-0.8
	l-1.6-2.3l0,0H127v2.3h-0.6L126.3,60.1L126.3,60.1z M128.7,63.1c0.8,0,1.4-0.4,1.4-1.2l0,0c0-0.7-0.5-1.1-1.4-1.1H127v2.4h1.7V63.1z
	"/>
<polygon fill="#0BB7E4" points="132.8,60.1 136.7,60.1 136.7,60.7 133.4,60.7 133.4,62.8 136.4,62.8 136.4,63.4 133.4,63.4 
	133.4,65.9 132.8,65.9 "/>
<path fill="#0BB7E4" d="M138.7,60.1h2.4c0.7,0,1.2,0.2,1.6,0.6c0.3,0.3,0.4,0.7,0.4,1.1l0,0c0,1-0.6,1.5-1.5,1.7l1.7,2.4h-0.8
	l-1.6-2.3l0,0h-1.6v2.3h-0.6L138.7,60.1L138.7,60.1z M141,63.1c0.8,0,1.4-0.4,1.4-1.2l0,0c0-0.7-0.5-1.1-1.4-1.1h-1.7v2.4h1.7V63.1z
	"/>
<path fill="#0BB7E4" d="M144.9,63L144.9,63c0-1.6,1.1-3,2.8-3s2.8,1.4,2.8,3l0,0c0,1.6-1.1,3-2.8,3S144.9,64.6,144.9,63 M149.9,63
	L149.9,63c0-1.3-0.9-2.4-2.2-2.4s-2.1,1.1-2.1,2.4l0,0c0,1.3,0.9,2.4,2.2,2.4C149,65.4,149.9,64.3,149.9,63"/>
<polygon fill="#0BB7E4" points="152.6,60.1 153.2,60.1 156.7,64.7 156.7,60.1 157.3,60.1 157.3,65.9 156.8,65.9 153.2,61.1 
	153.2,65.9 152.6,65.9 "/>
<polygon fill="#0BB7E4" points="161,60.7 159.2,60.7 159.2,60.1 163.5,60.1 163.5,60.7 161.7,60.7 161.7,65.9 161,65.9 "/>
<path fill="#0BB7E4" d="M168.6,60.1h2.4c0.7,0,1.2,0.2,1.6,0.6c0.3,0.3,0.4,0.7,0.4,1.1l0,0c0,1-0.6,1.5-1.5,1.7l1.7,2.4h-0.8
	l-1.6-2.3l0,0h-1.6v2.3h-0.6L168.6,60.1L168.6,60.1z M170.9,63.1c0.8,0,1.4-0.4,1.4-1.2l0,0c0-0.7-0.5-1.1-1.4-1.1h-1.7v2.4h1.7
	V63.1z"/>
<polygon fill="#0BB7E4" points="175,60.1 179,60.1 179,60.7 175.7,60.7 175.7,62.7 178.7,62.7 178.7,63.3 175.7,63.3 175.7,65.3 
	179.1,65.3 179.1,65.9 175,65.9 "/>
<path fill="#0BB7E4" d="M180.7,65.1l0.4-0.5c0.6,0.5,1.1,0.8,1.9,0.8c0.7,0,1.2-0.4,1.2-1l0,0c0-0.5-0.3-0.8-1.4-1.1
	c-1.3-0.3-1.8-0.7-1.8-1.7l0,0c0-0.9,0.8-1.6,1.8-1.6c0.8,0,1.4,0.2,1.9,0.7l-0.4,0.5c-0.5-0.4-1-0.6-1.6-0.6
	c-0.7,0-1.2,0.4-1.2,0.9l0,0c0,0.5,0.3,0.9,1.5,1.1c1.2,0.3,1.8,0.8,1.8,1.6l0,0c0,1-0.8,1.6-1.9,1.6
	C182.1,66,181.4,65.7,180.7,65.1"/>
<path fill="#0BB7E4" d="M186.6,63L186.6,63c0-1.6,1.1-3,2.8-3s2.8,1.4,2.8,3l0,0c0,1.6-1.1,3-2.8,3C187.8,66,186.6,64.6,186.6,63
	 M191.6,63L191.6,63c0-1.3-0.9-2.4-2.2-2.4s-2.1,1.1-2.1,2.4l0,0c0,1.3,0.9,2.4,2.2,2.4C190.7,65.4,191.6,64.3,191.6,63"/>
<path fill="#0BB7E4" d="M194.3,60.1h2.4c0.7,0,1.2,0.2,1.6,0.6c0.3,0.3,0.4,0.7,0.4,1.1l0,0c0,1-0.6,1.5-1.5,1.7l1.7,2.4h-0.8
	l-1.6-2.3l0,0h-1.6v2.3h-0.6L194.3,60.1L194.3,60.1z M196.6,63.1c0.8,0,1.4-0.4,1.4-1.2l0,0c0-0.7-0.5-1.1-1.4-1.1h-1.7v2.4h1.7
	V63.1z"/>
<polygon fill="#0BB7E4" points="202.2,60.7 200.3,60.7 200.3,60.1 204.6,60.1 204.6,60.7 202.8,60.7 202.8,65.9 202.2,65.9 "/>
<polygon fill="#0BB7E4" points="0,60.1 0.6,60.1 0.6,63.6 3.8,60.1 4.6,60.1 2.2,62.6 4.7,65.9 3.9,65.9 1.8,63.1 0.6,64.4 
	0.6,65.9 0,65.9 "/>
<polygon fill="#0BB7E4" points="6,60.1 10,60.1 10,60.7 6.6,60.7 6.6,62.7 9.6,62.7 9.6,63.3 6.6,63.3 6.6,65.3 10,65.3 10,65.9 
	6,65.9 "/>
<polygon fill="#0BB7E4" points="13.4,63.6 11.1,60.1 11.9,60.1 13.7,63 15.6,60.1 16.3,60.1 14,63.6 14,65.9 13.4,65.9 "/>
<polygon fill="#0BB7E4" points="20,60.1 20.7,60.1 22.2,64.9 23.7,60.1 24.3,60.1 25.8,64.9 27.3,60.1 28,60.1 26,66 25.5,66 
	24,61.2 22.5,66 22,66 "/>
<polygon fill="#0BB7E4" points="29.5,60.1 33.5,60.1 33.5,60.7 30.1,60.7 30.1,62.7 33.1,62.7 33.1,63.3 30.1,63.3 30.1,65.3 
	33.5,65.3 33.5,65.9 29.5,65.9 "/>
<path fill="#0BB7E4" d="M34.8,65.1l0.4-0.5c0.6,0.6,1.1,0.8,1.9,0.8c0.7,0,1.2-0.4,1.2-1l0,0c0-0.5-0.3-0.9-1.4-1.1
	C35.6,63,35,62.6,35,61.6l0,0c0-0.9,0.8-1.6,1.8-1.6c0.8,0,1.4,0.2,1.9,0.7l-0.4,0.5c-0.5-0.4-1-0.6-1.6-0.6c-0.7,0-1.2,0.4-1.2,0.9
	l0,0c0,0.6,0.3,0.9,1.5,1.1c1.2,0.3,1.8,0.8,1.8,1.7l0,0c0,1-0.8,1.6-1.9,1.6C36.1,66,35.4,65.7,34.8,65.1"/>
<polygon fill="#0BB7E4" points="41.9,60.7 40,60.7 40,60.1 44.3,60.1 44.3,60.7 42.5,60.7 42.5,65.9 41.9,65.9 "/>
<path fill="#0BB7E4" d="M274.5,0h-16c-1.4,0-2.5,0.6-2.5,2v9c0,1.4,1.1,3,2.5,3h2.5v3.5l4-3.5h9.5c1.4,0,2.5-1.6,2.5-3V2
	C277,0.6,275.9,0,274.5,0z M262.5,8.6c-0.9,0-1.6-0.7-1.6-1.6s0.7-1.6,1.6-1.6s1.6,0.7,1.6,1.6S263.4,8.6,262.5,8.6z M266.5,8.6
	c-0.9,0-1.6-0.7-1.6-1.6s0.7-1.6,1.6-1.6s1.6,0.7,1.6,1.6S267.4,8.6,266.5,8.6z M270.5,8.6c-0.9,0-1.6-0.7-1.6-1.6s0.7-1.6,1.6-1.6
	s1.6,0.7,1.6,1.6S271.4,8.6,270.5,8.6z"/>
<polygon fill="#FFFFFF" points="0,96 7,96 3.5,100 "/>
<polygon fill="#9F9F9F" points="27,96 34,96 30.5,100 "/>
<polygon fill="#9F9F9F" points="54,103 54,96 58,99.5 "/>
<path fill="#FFFFFF" d="M5.4,147l21.1-20.9c0.7-0.7,0.7-1.9,0-2.6s-1.9-0.7-2.6,0L1.6,145.6c0,0-0.1,0-0.1,0.1
	C1.2,146.1,1,146.5,1,147s0.2,0.9,0.5,1.3c0,0,0.1,0,0.1,0.1l22.3,22.1c0.7,0.7,1.9,0.7,2.6,0s0.7-1.9,0-2.6L5.4,147z"/>
<path fill="#E5FAFF" d="M55.4,147l21.1-20.9c0.7-0.7,0.7-1.9,0-2.6s-1.9-0.7-2.6,0l-22.3,22.1c0,0-0.1,0-0.1,0.1
	c-0.4,0.4-0.5,0.8-0.5,1.3s0.2,0.9,0.5,1.3c0,0,0.1,0,0.1,0.1l22.3,22.1c0.7,0.7,1.9,0.7,2.6,0s0.7-1.9,0-2.6L55.4,147z"/>
<path fill="#FFFFFF" d="M127.5,145.7C127.4,145.7,127.4,145.7,127.5,145.7l-22.4-22.2c-0.7-0.7-1.9-0.7-2.6,0s-0.7,1.9,0,2.6
	l21.1,20.9l-21.1,20.9c-0.7,0.7-0.7,1.9,0,2.6c0.7,0.7,1.9,0.7,2.6,0l22.3-22.1c0,0,0.1,0,0.1-0.1c0.4-0.4,0.5-0.8,0.5-1.3
	C128,146.5,127.8,146.1,127.5,145.7z"/>
<path fill="#E5FAFF" d="M177.5,145.7C177.4,145.7,177.4,145.7,177.5,145.7l-22.4-22.2c-0.7-0.7-1.9-0.7-2.6,0
	c-0.7,0.7-0.7,1.9,0,2.6l21.1,20.9l-21.1,20.9c-0.7,0.7-0.7,1.9,0,2.6c0.7,0.7,1.9,0.7,2.6,0l22.3-22.1c0,0,0.1,0,0.1-0.1
	c0.4-0.4,0.5-0.8,0.5-1.3C178,146.5,177.8,146.1,177.5,145.7z"/>
<path fill="#FFFFFF" d="M37,230.5C37,250.7,21.3,267,0,267c0-17,0-43.4,0-73C21.3,194,37,210.3,37,230.5z"/>
<g>
	<g>
		<path fill="#0BB7E4" d="M10.9,230.5l8.9-9.1c0.3-0.3,0.3-0.8,0-1.1s-0.8-0.3-1.1,0L9.3,230l0,0c-0.2,0.2-0.2,0.4-0.2,0.6
			s0.1,0.4,0.2,0.6l0,0l9.4,9.7c0.3,0.3,0.8,0.3,1.1,0c0.3-0.3,0.3-0.8,0-1.1L10.9,230.5z"/>
	</g>
</g>
<path fill="#FFFFFF" d="M94,230.5c0,20.2-15.7,36.5-37,36.5c0-17,0-43.4,0-73C78.3,194,94,210.3,94,230.5z"/>
<path fill="#FFFFFF" d="M114,230.5c0-20.2,15.7-36.5,37-36.5c0,17,0,43.4,0,73C129.7,267,114,250.7,114,230.5z"/>
<path fill="#FFFFFF" d="M171,230.5c0-20.2,15.7-36.5,37-36.5c0,17,0,43.4,0,73C186.7,267,171,250.7,171,230.5z"/>
<g>
	<g>
		<path fill="#7DE2F9" d="M68.9,230.5l8.9-9.1c0.3-0.3,0.3-0.8,0-1.1s-0.8-0.3-1.1,0l-9.4,9.7l0,0c-0.2,0.2-0.2,0.4-0.2,0.6
			s0.1,0.4,0.2,0.6l0,0l9.4,9.7c0.3,0.3,0.8,0.3,1.1,0c0.3-0.3,0.3-0.8,0-1.1L68.9,230.5z"/>
	</g>
</g>
<g>
	<g>
		<path fill="#0BB7E4" d="M141.8,229.9L141.8,229.9l-9.5-9.7c-0.3-0.3-0.8-0.3-1.1,0s-0.3,0.8,0,1.1l8.9,9.1l-8.9,9.1
			c-0.3,0.3-0.3,0.8,0,1.1s0.8,0.3,1.1,0l9.4-9.7l0,0c0.2-0.2,0.2-0.4,0.2-0.6C142,230.3,141.9,230.1,141.8,229.9z"/>
	</g>
</g>
<g>
	<g>
		<path fill="#7DE2F9" d="M198.8,229.9L198.8,229.9l-9.5-9.7c-0.3-0.3-0.8-0.3-1.1,0s-0.3,0.8,0,1.1l8.9,9.1l-8.9,9.1
			c-0.3,0.3-0.3,0.8,0,1.1s0.8,0.3,1.1,0l9.4-9.7l0,0c0.2-0.2,0.2-0.4,0.2-0.6C199,230.3,198.9,230.1,198.8,229.9z"/>
	</g>
</g>
<ellipse fill="#0BB7E4" cx="8.3" cy="297.9" rx="1.4" ry="1.3"/>
<ellipse fill="#0BB7E4" cx="24.6" cy="297.9" rx="1.4" ry="1.3"/>
<path fill="#0BB7E4" d="M5.5,295.1c-0.8,0.7-1.2,1.7-1.2,2.8s0.4,2,1.2,2.8c0.8,0.7,1.8,1.1,2.8,1.1c2.2,0,4-1.8,4-3.9
	c0-2.2-1.8-3.9-4-3.9C7.2,294,6.2,294.4,5.5,295.1z M6.4,299.8c-0.5-0.5-0.8-1.2-0.8-1.9s0.3-1.4,0.8-1.9s1.2-0.8,2-0.8
	c1.5,0,2.8,1.2,2.8,2.7s-1.2,2.7-2.8,2.7C7.6,300.6,6.9,300.3,6.4,299.8z"/>
<path fill="#0BB7E4" d="M21.8,295.1c-0.8,0.7-1.2,1.7-1.2,2.8s0.4,2,1.2,2.8s1.8,1.1,2.8,1.1c2.2,0,4-1.8,4-3.9c0-2.2-1.8-3.9-4-3.9
	C23.5,294,22.5,294.4,21.8,295.1z M22.6,299.8c-0.5-0.5-0.8-1.2-0.8-1.9s0.3-1.4,0.8-1.9s1.2-0.8,2-0.8c1.5,0,2.8,1.2,2.8,2.7
	s-1.2,2.7-2.8,2.7C23.9,300.6,23.2,300.3,22.6,299.8z"/>
<path fill="#0BB7E4" d="M31,292.7c0.3-0.9,0.8-2,1.5-2.6H27c-0.1,0-0.2,0-0.3-0.1c-0.3-0.5-2.3-3-10.4-3c-8.9,0-10.5,3.1-10.5,3.1
	H0.1c0.7,0.7,1.2,1.9,1.5,2.9c-1,1.4-1.7,3-1.7,4.9c0,4.5,3.7,8.1,8.3,8.1c2.5,0,4.8-1.1,6.3-2.9l1.9,2.6L18,303
	c1.5,1.8,3.8,3,6.4,3c4.6,0,8.3-3.6,8.3-8.1C32.9,295.9,32.2,294.1,31,292.7z M8.3,304.4c-3.7,0-6.7-2.9-6.7-6.5s3-6.5,6.7-6.5
	s6.7,2.9,6.7,6.5S12,304.4,8.3,304.4z M8.4,290.3c0,0,2.1-2.3,7.8-2.3h0.6c5.7,0,7.8,2.3,7.8,2.3s-6.1-1-8.1,6.3
	C14.5,289.3,8.4,290.3,8.4,290.3z M24.6,304.4c-3.7,0-6.7-2.9-6.7-6.5s3-6.5,6.7-6.5s6.7,2.9,6.7,6.5
	C31.3,301.5,28.3,304.4,24.6,304.4z"/>
<path fill="#0BB7E4" d="M38.7,291.9v2H41v1.2h-2.3v4.6c0,1.1,0.3,1.7,1.2,1.7c0.4,0,0.7,0,0.9-0.1l0.1,1.2c-0.3,0.1-0.8,0.2-1.4,0.2
	c-0.7,0-1.3-0.2-1.7-0.7s-0.6-1.2-0.6-2.2v-4.7h-1.4V294h1.4v-1.6L38.7,291.9z"/>
<path fill="#0BB7E4" d="M42.4,296.6c0-1,0-1.9-0.1-2.7h1.4l0.1,1.7h0.1c0.4-1.1,1.4-1.9,2.5-1.9c0.2,0,0.3,0,0.4,0.1v1.4
	c-0.2,0-0.3,0-0.6,0c-1.1,0-1.9,0.8-2.1,2c0,0.2-0.1,0.5-0.1,0.7v4.5h-1.6L42.4,296.6z"/>
<path fill="#0BB7E4" d="M48.8,292.4c-0.6,0-1-0.5-1-1s0.4-1,1-1s1,0.4,1,1S49.4,292.4,48.8,292.4L48.8,292.4z M48,302.5V294h1.6v8.5
	H48z"/>
<path fill="#0BB7E4" d="M51.9,296.8c0-1.1,0-2-0.1-2.8h1.4l0.1,1.5l0,0c0.6-1.1,1.7-1.7,3.1-1.7c2.1,0,3.7,1.7,3.7,4.3
	c0,3.1-1.9,4.6-4,4.6c-1.2,0-2.2-0.5-2.7-1.3l0,0v4.6h-1.6L51.9,296.8L51.9,296.8z M53.5,299c0,0.2,0,0.4,0.1,0.6
	c0.3,1.1,1.3,1.8,2.4,1.8c1.7,0,2.7-1.3,2.7-3.3c0-1.7-0.9-3.2-2.6-3.2c-1.1,0-2.1,0.7-2.4,1.9c0,0.2-0.1,0.4-0.1,0.6
	C53.5,297.6,53.5,299,53.5,299z"/>
<path fill="#0BB7E4" d="M68,300.5c0,0.7,0,1.5,0.1,2h-1.4l-0.1-1.1h-0.1c-0.5,0.7-1.4,1.3-2.7,1.3c-1.8,0-2.7-1.2-2.7-2.4
	c0-2.1,1.9-3.2,5.3-3.2v-0.2c0-0.7-0.2-2-2-2c-0.8,0-1.7,0.2-2.3,0.6l-0.4-1c0.7-0.4,1.8-0.7,2.9-0.7c2.7,0,3.4,1.8,3.4,3.5V300.5
	L68,300.5z M66.5,298.2c-1.7,0-3.7,0.3-3.7,1.9c0,1,0.7,1.5,1.5,1.5c1.2,0,1.9-0.7,2.2-1.4c0.1-0.2,0.1-0.3,0.1-0.5L66.5,298.2
	L66.5,298.2z"/>
<path fill="#0BB7E4" d="M77.8,290v10.3c0,0.8,0,1.6,0.1,2.2h-1.4l-0.1-1.5l0,0c-0.5,1-1.5,1.7-3,1.7c-2.1,0-3.8-1.7-3.8-4.3
	c0-2.9,1.8-4.6,3.9-4.6c1.4,0,2.3,0.6,2.7,1.3l0,0V290H77.8z M76.2,297.5c0-0.2,0-0.5-0.1-0.7c-0.2-1-1.1-1.8-2.3-1.8
	c-1.7,0-2.6,1.4-2.6,3.3c0,1.7,0.9,3.2,2.6,3.2c1.1,0,2.1-0.7,2.3-1.9c0.1-0.2,0.1-0.4,0.1-0.7V297.5z"/>
<path fill="#0BB7E4" d="M80.7,294l1.7,4.8c0.3,0.8,0.5,1.5,0.7,2.2h0.1c0.2-0.7,0.5-1.4,0.7-2.2l1.7-4.8h1.7l-3.5,8.5h-1.5L79,294
	H80.7z"/>
<path fill="#0BB7E4" d="M89.2,292.4c-0.6,0-1-0.5-1-1s0.4-1,1-1s1,0.4,1,1S89.8,292.4,89.2,292.4L89.2,292.4z M88.4,302.5V294H90
	v8.5H88.4z"/>
<path fill="#0BB7E4" d="M92.1,300.9c0.5,0.3,1.3,0.6,2.1,0.6c1.1,0,1.7-0.5,1.7-1.3c0-0.7-0.5-1.1-1.6-1.6c-1.6-0.6-2.3-1.4-2.3-2.4
	c0-1.4,1.2-2.5,3-2.5c0.9,0,1.7,0.2,2.1,0.5l-0.4,1.1c-0.3-0.2-1-0.5-1.8-0.5c-0.9,0-1.5,0.5-1.5,1.2s0.5,1,1.7,1.5
	c1.5,0.5,2.3,1.3,2.3,2.6c0,1.5-1.2,2.6-3.3,2.6c-1,0-1.9-0.2-2.5-0.6L92.1,300.9z"/>
<path fill="#0BB7E4" d="M102.7,302.7c-2.4,0-4.2-1.7-4.2-4.4c0-2.9,1.9-4.5,4.4-4.5s4.2,1.8,4.2,4.4
	C107,301.3,104.8,302.7,102.7,302.7L102.7,302.7L102.7,302.7z M102.7,301.5c1.5,0,2.7-1.4,2.7-3.3c0-1.4-0.7-3.3-2.6-3.3
	s-2.7,1.7-2.7,3.3C100.1,300.1,101.2,301.5,102.7,301.5L102.7,301.5z"/>
<path fill="#0BB7E4" d="M108.7,296.6c0-1,0-1.9-0.1-2.7h1.4l0.1,1.7h0.1c0.4-1.1,1.4-1.9,2.5-1.9c0.2,0,0.3,0,0.4,0.1v1.4
	c-0.2,0-0.3,0-0.6,0c-1.1,0-1.9,0.8-2.1,2c0,0.2-0.1,0.5-0.1,0.7v4.5h-1.6L108.7,296.6z"/>
<path fill="#0BB7E4" d="M115.5,293.9c0.1,0,0.3,0,0.6,0c0.3,0,0.5,0,0.6,0.1s0.2,0.2,0.2,0.4c0,0.2-0.2,0.4-0.3,0.4l0,0
	c0.1,0.1,0.2,0.2,0.2,0.3c0.1,0.2,0.1,0.4,0.1,0.5h-0.4c0-0.1-0.1-0.2-0.1-0.4c-0.1-0.2-0.1-0.3-0.3-0.3H116v0.7h-0.4L115.5,293.9
	L115.5,293.9z M115.9,294.7h0.2c0.2,0,0.3-0.1,0.3-0.3c0-0.2-0.1-0.3-0.3-0.3c-0.1,0-0.2,0-0.2,0
	C115.9,294.1,115.9,294.7,115.9,294.7z"/>
<path fill="#0BB7E4" d="M114.3,294.8c0,1,0.8,1.8,1.9,1.8c1,0,1.9-0.8,1.9-1.8s-0.8-1.8-1.9-1.8C115.1,293,114.3,293.8,114.3,294.8z
	 M114.7,294.8c0-0.8,0.7-1.4,1.5-1.4s1.5,0.6,1.5,1.4s-0.7,1.4-1.5,1.4C115.3,296.2,114.7,295.6,114.7,294.8z"/>
<path fill="#F3FBFE" d="M14.8,338.5H13c0,2.9,0,6.5,0,6.5h-2.7c0,0,0-3.5,0-6.5H9v-2.3h1.3v-1.5c0-1.1,0.5-2.7,2.7-2.7h2v2.2
	c0,0-1.2,0-1.4,0s-0.6,0.1-0.6,0.6v1.3h2L14.8,338.5z"/>
<path fill="#F3FBFE" d="M63.5,335.2c0,0.1,0,0.3,0,0.4c0,4.3-3.1,9.3-8.8,9.3c-1.7,0-3.4-0.5-4.7-1.5c0.2,0,0.5,0,0.7,0
	c1.4,0,2.8-0.5,3.8-1.4c-1.3,0-2.5-1-2.9-2.3c0.2,0,0.4,0.1,0.6,0.1c0.3,0,0.6,0,0.8-0.1c-1.4-0.3-2.5-1.6-2.5-3.2l0,0
	c0.4,0.2,0.9,0.4,1.4,0.4c-0.8-0.6-1.4-1.6-1.4-2.7c0-0.6,0.2-1.2,0.4-1.6c1.5,2,3.8,3.3,6.3,3.4c-0.1-0.2-0.1-0.5-0.1-0.7
	c0-1.8,1.4-3.3,3.1-3.3c0.9,0,1.7,0.4,2.2,1c0.7-0.1,1.4-0.4,2-0.8c-0.2,0.8-0.7,1.4-1.4,1.8c0.6-0.1,1.2-0.3,1.8-0.5
	C64.6,334.2,64.1,334.8,63.5,335.2z"/>
<path fill="#F3FBFE" d="M107.5,337.5h-1.1c0.1,0.3,0.1,0.7,0.1,1c0,2.2-1.8,4-4,4s-4-1.8-4-4c0-0.3,0-0.7,0.1-1h-1.1v5.5
	c0,0.3,0.2,0.5,0.5,0.5h9c0.3,0,0.5-0.2,0.5-0.5V337.5z M107.5,334c0-0.3-0.2-0.5-0.5-0.5h-1.5c-0.3,0-0.5,0.2-0.5,0.5v1.5
	c0,0.3,0.2,0.5,0.5,0.5h1.5c0.3,0,0.5-0.2,0.5-0.5V334z M102.5,336c-1.4,0-2.5,1.1-2.5,2.5s1.1,2.5,2.5,2.5s2.5-1.1,2.5-2.5
	S103.9,336,102.5,336 M107.5,345h-10c-0.8,0-1.5-0.7-1.5-1.5v-10c0-0.8,0.7-1.5,1.5-1.5h10c0.8,0,1.5,0.7,1.5,1.5v10
	C109,344.3,108.3,345,107.5,345"/>
<path fill="#F3FBFE" d="M-1,325v27h27v-27H-1z M12.5,351C5.6,351,0,345.4,0,338.5S5.6,326,12.5,326S25,331.6,25,338.5
	S19.4,351,12.5,351z"/>
<path fill="#F3FBFE" d="M44,325v27h27v-27H44z M57.5,351c-6.9,0-12.5-5.6-12.5-12.5S50.6,326,57.5,326S70,331.6,70,338.5
	S64.4,351,57.5,351z"/>
<path fill="#F3FBFE" d="M89,325v27h27v-27H89z M102.5,351c-6.9,0-12.5-5.6-12.5-12.5s5.6-12.5,12.5-12.5s12.5,5.6,12.5,12.5
	S109.4,351,102.5,351z"/>
<path fill="#2C7A8B" d="M174.5,329.5c0,10.8-8.7,19.5-19.5,19.5s-19.5-8.7-19.5-19.5S144.2,310,155,310S174.5,318.7,174.5,329.5z"/>
<path fill="#8BD3E1" d="M164.5,329.7l-4.9-4l0,0l-4.2-3.5l-4.6,3.8l13.8,11.2L164.5,329.7z"/>
<path fill="#8BD3E1" d="M150.8,325.8L150.8,325.8l-5.3,4.2v7l14.1-11.4l-4.3-3.6L150.8,325.8z"/>
<path id="twitter-icon_3_" fill="#0BB7E4" d="M16,366.5c-0.6,0.3-1.2,0.4-1.9,0.5c0.7-0.4,1.2-1,1.4-1.8c-0.6,0.4-1.3,0.6-2.1,0.8
	c-0.6-0.6-1.5-1-2.4-1c-2.1,0-3.7,2-3.2,4c-2.7-0.1-5.1-1.4-6.8-3.4c-0.9,1.5-0.4,3.4,1,4.4c-0.5,0-1-0.2-1.5-0.4
	c0,1.5,1.1,2.9,2.6,3.3c-0.5,0.1-1,0.2-1.5,0.1c0.4,1.3,1.6,2.3,3.1,2.3c-1.4,1.1-3.1,1.6-4.9,1.4c1.5,0.9,3.2,1.5,5,1.5
	c6.1,0,9.5-5.1,9.3-9.8C15,367.8,15.6,367.2,16,366.5z"/>
<path id="twitter-icon_2_" fill="#2C7A8C" d="M16,386.5c-0.6,0.3-1.2,0.4-1.9,0.5c0.7-0.4,1.2-1,1.4-1.8c-0.6,0.4-1.3,0.6-2.1,0.8
	c-0.6-0.6-1.5-1-2.4-1c-2.1,0-3.7,2-3.2,4c-2.7-0.1-5.1-1.4-6.8-3.4c-0.9,1.5-0.4,3.4,1,4.4c-0.5,0-1-0.2-1.5-0.4
	c0,1.5,1.1,2.9,2.6,3.3c-0.5,0.1-1,0.2-1.5,0.1c0.4,1.3,1.6,2.3,3.1,2.3c-1.4,1.1-3.1,1.6-4.9,1.4c1.5,0.9,3.2,1.5,5,1.5
	c6.1,0,9.5-5.1,9.3-9.8C15,387.8,15.6,387.2,16,386.5z"/>
<path id="facebook-icon_3_" fill="#0BB7E4" d="M27.4,369.2H26v2.2h1.4v6.5H30v-6.6h1.8l0.2-2.2h-2c0,0,0-0.8,0-1.2
	c0-0.5,0.1-0.7,0.6-0.7c0.4,0,1.4,0,1.4,0V365c0,0-1.5,0-1.8,0c-1.9,0-2.8,0.9-2.8,2.5C27.4,368.9,27.4,369.2,27.4,369.2z"/>
<path id="facebook-icon_2_" fill="#2C7A8C" d="M27.4,389.2H26v2.2h1.4v6.5H30v-6.6h1.8l0.2-2.2h-2c0,0,0-0.8,0-1.2
	c0-0.5,0.1-0.7,0.6-0.7c0.4,0,1.4,0,1.4,0V385c0,0-1.5,0-1.8,0c-1.9,0-2.8,0.9-2.8,2.5C27.4,388.9,27.4,389.2,27.4,389.2z"/>
<path id="instagram-6-icon_3_" fill="#0BB7E4" d="M53,370.5h-1.1c0.1,0.3,0.1,0.7,0.1,1c0,2.2-1.8,4-4,4s-4-1.8-4-4
	c0-0.3,0-0.7,0.1-1H43v5.5c0,0.3,0.2,0.5,0.5,0.5h9c0.3,0,0.5-0.2,0.5-0.5V370.5L53,370.5z M53,367c0-0.3-0.2-0.5-0.5-0.5H51
	c-0.3,0-0.5,0.2-0.5,0.5v1.5c0,0.3,0.2,0.5,0.5,0.5h1.5c0.3,0,0.5-0.2,0.5-0.5V367z M48,369c-1.4,0-2.5,1.1-2.5,2.5s1.1,2.5,2.5,2.5
	s2.5-1.1,2.5-2.5S49.4,369,48,369 M53,378H43c-0.8,0-1.5-0.7-1.5-1.5v-10c0-0.8,0.7-1.5,1.5-1.5h10c0.8,0,1.5,0.7,1.5,1.5v10
	C54.5,377.3,53.8,378,53,378"/>
<path id="instagram-6-icon_2_" fill="#2C7A8C" d="M53,390.5h-1.1c0.1,0.3,0.1,0.7,0.1,1c0,2.2-1.8,4-4,4s-4-1.8-4-4
	c0-0.3,0-0.7,0.1-1H43v5.5c0,0.3,0.2,0.5,0.5,0.5h9c0.3,0,0.5-0.2,0.5-0.5V390.5L53,390.5z M53,387c0-0.3-0.2-0.5-0.5-0.5H51
	c-0.3,0-0.5,0.2-0.5,0.5v1.5c0,0.3,0.2,0.5,0.5,0.5h1.5c0.3,0,0.5-0.2,0.5-0.5V387z M48,389c-1.4,0-2.5,1.1-2.5,2.5s1.1,2.5,2.5,2.5
	s2.5-1.1,2.5-2.5S49.4,389,48,389 M53,398H43c-0.8,0-1.5-0.7-1.5-1.5v-10c0-0.8,0.7-1.5,1.5-1.5h10c0.8,0,1.5,0.7,1.5,1.5v10
	C54.5,397.3,53.8,398,53,398"/>
<path id="email-icon_3_" fill="#0BB7E4" d="M71.7,369.9l-4.7-3.3v7.7L71.7,369.9z M83,365H67.1l7.9,5.7L83,365z M77.2,370.7
	l-2.2,1.6l-2.2-1.6L67,376h16L77.2,370.7z M78.3,369.9l4.7,4.4v-7.7L78.3,369.9z"/>
<path id="email-icon_2_" fill="#2C7A8C" d="M71.7,389.9l-4.7-3.3v7.7L71.7,389.9z M83,385H67.1l7.9,5.7L83,385z M77.2,390.7
	l-2.2,1.6l-2.2-1.6L67,396h16L77.2,390.7z M78.3,389.9l4.7,4.3v-7.7L78.3,389.9z"/>
<path id="phone-3-icon_1_" fill="#0BB7E4" d="M104.9,368.8l-1.2,0.6l-2-3.8l1.2-0.6L104.9,368.8z M107.6,373.9l-1.2,0.6l2,3.8
	l1.2-0.6L107.6,373.9z M103,369.8l-2-3.8c-0.8,0.4-3.1,1.4,0.3,7.8c3.4,6.5,5.4,5.3,6.3,4.9l-2-3.8
	C104.4,375.4,101.8,370.4,103,369.8z"/>
<path fill="#F3FBFE" d="M183,325v27h27v-27H183z M196.5,351c-6.9,0-12.5-5.6-12.5-12.5s5.6-12.5,12.5-12.5s12.5,5.6,12.5,12.5
	S203.4,351,196.5,351z"/>
<path fill="#F3FBFE" d="M196.8,332.4c0.1,0.1,0.2,0.2,0.4,0.3c0.1,0.1,0.3,0.3,0.4,0.5c0.1,0.2,0.2,0.4,0.3,0.7
	c0.1,0.3,0.1,0.6,0.1,0.9c0,0.6-0.1,1.1-0.4,1.5c-0.1,0.2-0.3,0.4-0.4,0.5c-0.2,0.2-0.3,0.3-0.5,0.5c-0.1,0.1-0.2,0.2-0.3,0.4
	c-0.1,0.1-0.2,0.3-0.2,0.5s0.1,0.3,0.2,0.5c0.1,0.1,0.2,0.2,0.3,0.3l0.6,0.5c0.4,0.3,0.7,0.6,1,1s0.4,0.9,0.4,1.5
	c0,0.9-0.4,1.6-1.1,2.3c-0.8,0.7-1.9,1-3.4,1.1c-1.2,0-2.2-0.3-2.8-0.8s-0.9-1.1-0.9-1.7c0-0.3,0.1-0.7,0.3-1.1s0.5-0.8,1.1-1.1
	c0.6-0.3,1.2-0.5,1.8-0.7c0.6-0.1,1.1-0.1,1.6-0.2c-0.1-0.2-0.2-0.3-0.3-0.5s-0.2-0.4-0.2-0.7c0-0.2,0-0.3,0.1-0.4
	c0-0.1,0.1-0.2,0.1-0.3c-0.2,0-0.4,0-0.6,0c-0.9,0-1.7-0.3-2.2-0.9c-0.5-0.5-0.8-1.2-0.8-1.9c0-0.9,0.4-1.7,1.1-2.4
	c0.5-0.4,1-0.7,1.6-0.8c0.5-0.1,1-0.2,1.5-0.2h3.5l-1.1,0.6L196.8,332.4L196.8,332.4z M197.5,342.6c0-0.4-0.1-0.8-0.4-1.2
	c-0.3-0.3-0.8-0.7-1.5-1.2c-0.1,0-0.2,0-0.4,0c-0.1,0-0.3,0-0.7,0c-0.4,0.1-0.7,0.1-1.1,0.2c-0.1,0-0.2,0.1-0.4,0.2
	s-0.3,0.2-0.5,0.3c-0.2,0.1-0.3,0.3-0.4,0.5c-0.1,0.2-0.2,0.5-0.2,0.8c0,0.6,0.3,1.1,0.8,1.5s1.3,0.6,2.2,0.6c0.8,0,1.5-0.2,1.9-0.6
	C197.3,343.6,197.5,343.1,197.5,342.6 M195.1,337.4c0.5,0,0.9-0.2,1.2-0.5c0.1-0.2,0.2-0.5,0.3-0.7c0-0.2,0-0.4,0-0.6
	c0-0.7-0.2-1.4-0.5-2.1c-0.2-0.3-0.4-0.6-0.7-0.8c-0.3-0.2-0.6-0.3-1-0.3c-0.5,0-0.9,0.2-1.2,0.6s-0.4,0.8-0.4,1.3
	c0,0.6,0.2,1.3,0.6,2c0.2,0.3,0.4,0.6,0.7,0.8C194.4,337.3,194.7,337.4,195.1,337.4"/>
<polygon fill="#F3FBFE" points="203.8,333.7 202,333.7 202,331.8 201.1,331.8 201.1,333.7 199.2,333.7 199.2,334.6 201.1,334.6 
	201.1,336.5 202,336.5 202,334.6 203.8,334.6 "/>
<path fill="#F3FBFE" d="M215,325v27h27v-27H215z M228.5,351c-6.9,0-12.5-5.6-12.5-12.5s5.6-12.5,12.5-12.5s12.5,5.6,12.5,12.5
	S235.4,351,228.5,351z"/>
<path fill="#F3FBFE" d="M249,325v27h27v-27H249z M262.5,351c-6.9,0-12.5-5.6-12.5-12.5s5.6-12.5,12.5-12.5s12.5,5.6,12.5,12.5
	S269.4,351,262.5,351z"/>
<g>
	<path fill="#0BB7E4" d="M122.2,365.6c0.1,0.1,0.2,0.2,0.4,0.3c0.1,0.1,0.3,0.3,0.4,0.5s0.2,0.4,0.3,0.6c0.1,0.2,0.1,0.5,0.1,0.9
		c0,0.6-0.1,1.1-0.4,1.5c-0.1,0.2-0.3,0.3-0.4,0.5c-0.2,0.1-0.3,0.3-0.5,0.5c-0.1,0.1-0.2,0.2-0.3,0.4c-0.1,0.1-0.2,0.3-0.2,0.5
		s0.1,0.3,0.2,0.4s0.2,0.2,0.3,0.3l0.6,0.5c0.4,0.3,0.7,0.6,0.9,1c0.3,0.4,0.4,0.8,0.4,1.4c0,0.8-0.4,1.6-1.1,2.2
		c-0.8,0.7-1.8,1-3.3,1c-1.2,0-2.1-0.3-2.7-0.8s-0.9-1-0.9-1.7c0-0.3,0.1-0.7,0.3-1.1c0.2-0.4,0.5-0.7,1-1c0.6-0.3,1.1-0.5,1.7-0.6
		s1.1-0.1,1.5-0.2c-0.1-0.2-0.2-0.3-0.3-0.5c-0.1-0.2-0.2-0.4-0.2-0.6s0-0.3,0.1-0.4c0-0.1,0.1-0.2,0.1-0.3c-0.2,0-0.4,0-0.5,0
		c-0.9,0-1.6-0.3-2.1-0.9c-0.5-0.5-0.7-1.1-0.7-1.8c0-0.8,0.4-1.6,1.1-2.3c0.5-0.4,1-0.7,1.5-0.8c0.5-0.1,1-0.2,1.5-0.2h3.4
		l-1.1,0.6L122.2,365.6L122.2,365.6z M122.8,375.4c0-0.4-0.1-0.8-0.4-1.1c-0.3-0.3-0.8-0.7-1.4-1.1c-0.1,0-0.2,0-0.4,0
		c-0.1,0-0.3,0-0.7,0c-0.4,0.1-0.7,0.1-1.1,0.2c-0.1,0-0.2,0.1-0.4,0.1c-0.2,0.1-0.3,0.2-0.5,0.3c-0.2,0.1-0.3,0.3-0.4,0.5
		s-0.2,0.5-0.2,0.8c0,0.6,0.3,1.1,0.8,1.5s1.2,0.6,2.1,0.6c0.8,0,1.4-0.2,1.8-0.5C122.6,376.4,122.8,375.9,122.8,375.4 M120.5,370.4
		c0.4,0,0.8-0.2,1.1-0.5c0.1-0.2,0.2-0.4,0.3-0.7c0-0.2,0-0.4,0-0.6c0-0.7-0.2-1.3-0.5-2c-0.2-0.3-0.4-0.6-0.6-0.8
		c-0.3-0.2-0.6-0.3-0.9-0.3c-0.5,0-0.8,0.2-1.1,0.6c-0.3,0.4-0.4,0.8-0.4,1.3c0,0.6,0.2,1.3,0.5,1.9c0.2,0.3,0.4,0.6,0.7,0.8
		C119.8,370.3,120.1,370.4,120.5,370.4"/>
	<polygon fill="#0BB7E4" points="128.9,366.9 127.1,366.9 127.1,365.1 126.2,365.1 126.2,366.9 124.4,366.9 124.4,367.7 
		126.2,367.7 126.2,369.5 127.1,369.5 127.1,367.7 128.9,367.7 	"/>
</g>
<g>
	<path fill="#2C7A8C" d="M122.2,385.7c0.1,0.1,0.2,0.2,0.4,0.3c0.1,0.1,0.3,0.3,0.4,0.5s0.2,0.4,0.3,0.6c0.1,0.2,0.1,0.5,0.1,0.9
		c0,0.6-0.1,1.1-0.4,1.5c-0.1,0.2-0.3,0.3-0.4,0.5c-0.2,0.1-0.3,0.3-0.5,0.5c-0.1,0.1-0.2,0.2-0.3,0.4c-0.1,0.1-0.2,0.3-0.2,0.5
		s0.1,0.3,0.2,0.4s0.2,0.2,0.3,0.3l0.6,0.5c0.4,0.3,0.7,0.6,0.9,1c0.3,0.4,0.4,0.8,0.4,1.4c0,0.8-0.4,1.6-1.1,2.2
		c-0.8,0.7-1.8,1-3.3,1c-1.2,0-2.1-0.3-2.7-0.8s-0.9-1-0.9-1.7c0-0.3,0.1-0.7,0.3-1.1c0.2-0.4,0.5-0.7,1-1c0.6-0.3,1.1-0.5,1.7-0.6
		s1.1-0.1,1.5-0.2c-0.1-0.2-0.2-0.3-0.3-0.5c-0.1-0.2-0.2-0.4-0.2-0.6s0-0.3,0.1-0.4c0-0.1,0.1-0.2,0.1-0.3c-0.2,0-0.4,0-0.5,0
		c-0.9,0-1.6-0.3-2.1-0.9c-0.5-0.5-0.7-1.1-0.7-1.8c0-0.8,0.4-1.6,1.1-2.3c0.5-0.4,1-0.7,1.5-0.8c0.5-0.1,1-0.2,1.5-0.2h3.4
		l-1.1,0.6L122.2,385.7L122.2,385.7z M122.8,395.5c0-0.4-0.1-0.8-0.4-1.1c-0.3-0.3-0.8-0.7-1.4-1.1c-0.1,0-0.2,0-0.4,0
		c-0.1,0-0.3,0-0.7,0c-0.4,0.1-0.7,0.1-1.1,0.2c-0.1,0-0.2,0.1-0.4,0.1c-0.2,0.1-0.3,0.2-0.5,0.3c-0.2,0.1-0.3,0.3-0.4,0.5
		s-0.2,0.5-0.2,0.8c0,0.6,0.3,1.1,0.8,1.5s1.2,0.6,2.1,0.6c0.8,0,1.4-0.2,1.8-0.5C122.6,396.5,122.8,396,122.8,395.5 M120.5,390.5
		c0.4,0,0.8-0.2,1.1-0.5c0.1-0.2,0.2-0.4,0.3-0.7c0-0.2,0-0.4,0-0.6c0-0.7-0.2-1.3-0.5-2c-0.2-0.3-0.4-0.6-0.6-0.8
		c-0.3-0.2-0.6-0.3-0.9-0.3c-0.5,0-0.8,0.2-1.1,0.6c-0.3,0.4-0.4,0.8-0.4,1.3c0,0.6,0.2,1.3,0.5,1.9c0.2,0.3,0.4,0.6,0.7,0.8
		C119.8,390.4,120.1,390.5,120.5,390.5"/>
	<polygon fill="#2C7A8C" points="128.9,386.9 127.1,386.9 127.1,385.1 126.2,385.1 126.2,386.9 124.4,386.9 124.4,387.8 
		126.2,387.8 126.2,389.6 127.1,389.6 127.1,387.8 128.9,387.8 	"/>
</g>
<g>
	<path fill="#0BB7E4" d="M205.9,366.6c0-0.2,0-0.5,0-0.7s0.1-0.2,0.2-0.2c0.1,0,0.3,0,0.4,0c0.4,0,0.7,0.1,1.1,0.1
		c0.3,0.1,0.7,0.2,1,0.2c0.1,0,0.2,0,0.2,0.1c0.3,0.1,0.5,0.2,0.8,0.3c0.2,0.1,0.3,0.1,0.5,0.2c0.3,0.1,0.6,0.3,0.9,0.5
		c0.3,0.2,0.6,0.4,0.9,0.6c0.4,0.3,0.8,0.7,1.1,1s0.6,0.7,0.9,1.1c0.2,0.2,0.3,0.4,0.4,0.7c0.1,0.2,0.2,0.3,0.3,0.5s0.2,0.4,0.3,0.6
		s0.2,0.5,0.3,0.7c0,0,0,0,0,0.1c0.2,0.8,0.4,1.5,0.4,2.3c0,0.2,0,0.3,0,0.5c0,0.1,0,0.2-0.1,0.2h-0.1c-0.5,0-0.9,0-1.4,0
		c-0.2,0-0.2,0-0.2-0.2c0-0.3,0-0.5-0.1-0.8c0-0.2-0.1-0.5-0.1-0.7s-0.1-0.4-0.1-0.6c-0.1-0.2-0.1-0.4-0.2-0.6
		c-0.1-0.2-0.2-0.4-0.3-0.6s-0.2-0.3-0.3-0.5c-0.1-0.1-0.1-0.2-0.2-0.3c-0.3-0.5-0.7-0.9-1.1-1.3c-0.2-0.2-0.5-0.4-0.8-0.6
		c-0.2-0.2-0.4-0.3-0.6-0.4c-0.1-0.1-0.3-0.2-0.4-0.2c-0.2-0.1-0.4-0.2-0.6-0.3c-0.3-0.1-0.5-0.2-0.8-0.3c-0.4-0.1-0.8-0.2-1.2-0.3
		c-0.3,0-0.5,0-0.8-0.1c-0.2,0-0.2,0-0.2-0.2C205.9,367.1,205.9,366.9,205.9,366.6L205.9,366.6z"/>
	<path fill="#0BB7E4" d="M211.3,375.5c-0.2,0-0.5,0-0.7,0c-0.1,0-0.2,0-0.2-0.1c0-0.3-0.1-0.7-0.2-1c-0.1-0.3-0.2-0.5-0.3-0.8
		c-0.1-0.2-0.1-0.3-0.2-0.4c-0.2-0.5-0.6-0.8-1-1.2c-0.2-0.2-0.4-0.3-0.6-0.5c-0.2-0.1-0.3-0.2-0.5-0.2c-0.2-0.1-0.4-0.1-0.6-0.2
		c-0.3-0.1-0.6-0.1-0.9-0.1c-0.2,0-0.2,0-0.2-0.2c0-0.5,0-1,0-1.4c0-0.2,0-0.3,0.3-0.2c0.4,0.1,0.8,0.1,1.1,0.2s0.6,0.2,0.9,0.3
		c0.2,0.1,0.4,0.2,0.6,0.2c0.1,0.1,0.3,0.1,0.4,0.2c0.2,0.1,0.4,0.2,0.5,0.4c0.2,0.2,0.4,0.3,0.6,0.5c0.2,0.2,0.5,0.5,0.7,0.7
		s0.3,0.4,0.4,0.6c0.2,0.3,0.3,0.5,0.4,0.8c0.1,0.2,0.2,0.4,0.2,0.6c0,0.1,0.1,0.3,0.1,0.4s0,0.1,0,0.2c0,0.4,0.1,0.7,0.1,1.1
		c0,0.1,0,0.1-0.1,0.2c-0.1,0-0.1,0-0.2,0C211.8,375.5,211.5,375.5,211.3,375.5z"/>
	<path fill="#0BB7E4" d="M207.1,375.5c-0.6,0-1.3-0.6-1.3-1.3c0-0.7,0.6-1.3,1.3-1.3s1.3,0.6,1.3,1.3
		C208.5,374.9,207.9,375.5,207.1,375.5z"/>
</g>
<ellipse fill="#F3FBFE" cx="224.7" cy="338.6" rx="0.7" ry="0.6"/>
<ellipse fill="#F3FBFE" cx="232.4" cy="338.6" rx="0.7" ry="0.6"/>
<path fill="#F3FBFE" d="M223.4,337.2c-0.4,0.3-0.6,0.8-0.6,1.3s0.2,0.9,0.6,1.3c0.4,0.3,0.9,0.5,1.3,0.5c1,0,1.9-0.9,1.9-1.8
	c0-1-0.9-1.8-1.9-1.8C224.2,336.7,223.7,336.9,223.4,337.2z M223.8,339.5c-0.2-0.2-0.4-0.6-0.4-0.9s0.1-0.7,0.4-0.9s0.6-0.4,0.9-0.4
	c0.7,0,1.3,0.6,1.3,1.3c0,0.7-0.6,1.3-1.3,1.3C224.4,339.8,224,339.7,223.8,339.5z"/>
<path fill="#F3FBFE" d="M231.1,337.2c-0.4,0.3-0.6,0.8-0.6,1.3s0.2,0.9,0.6,1.3s0.9,0.5,1.3,0.5c1,0,1.9-0.9,1.9-1.8
	c0-1-0.9-1.8-1.9-1.8C231.9,336.7,231.4,336.9,231.1,337.2z M231.5,339.5c-0.2-0.2-0.4-0.6-0.4-0.9s0.1-0.7,0.4-0.9s0.6-0.4,0.9-0.4
	c0.7,0,1.3,0.6,1.3,1.3c0,0.7-0.6,1.3-1.3,1.3C232.1,339.8,231.8,339.7,231.5,339.5z"/>
<path fill="#F3FBFE" d="M235.4,336.1c0.1-0.4,0.4-0.9,0.7-1.2h-2.6h-0.1c-0.1-0.2-1.1-1.4-4.9-1.4c-4.2,0-5,1.5-5,1.5h-2.7
	c0.3,0.3,0.6,0.9,0.7,1.4c-0.5,0.7-0.8,1.4-0.8,2.3c0,2.1,1.7,3.8,3.9,3.8c1.2,0,2.3-0.5,3-1.4l0.9,1.2l0.8-1.3
	c0.7,0.9,1.8,1.4,3,1.4c2.2,0,3.9-1.7,3.9-3.8C236.3,337.6,236,336.8,235.4,336.1z M224.7,341.6c-1.7,0-3.2-1.4-3.2-3.1
	s1.4-3.1,3.2-3.1c1.7,0,3.2,1.4,3.2,3.1S226.5,341.6,224.7,341.6z M224.8,335c0,0,1-1.1,3.7-1.1h0.3c2.7,0,3.7,1.1,3.7,1.1
	s-2.9-0.5-3.8,3C227.6,334.5,224.8,335,224.8,335z M232.4,341.6c-1.7,0-3.2-1.4-3.2-3.1s1.4-3.1,3.2-3.1s3.2,1.4,3.2,3.1
	S234.2,341.6,232.4,341.6z"/>
<g>
	<path fill="#F3FBFE" d="M257.4,333.6c0-0.3,0-0.5,0-0.8c0-0.2,0.1-0.2,0.3-0.2c0.2,0,0.3,0,0.5,0c0.4,0,0.8,0.1,1.2,0.1
		c0.4,0.1,0.7,0.2,1.1,0.3c0.1,0,0.2,0,0.3,0.1c0.3,0.1,0.6,0.2,0.8,0.3c0.2,0.1,0.3,0.2,0.5,0.2c0.3,0.2,0.6,0.3,0.9,0.5
		s0.7,0.4,1,0.7c0.4,0.4,0.8,0.7,1.2,1.1c0.3,0.4,0.7,0.8,1,1.2c0.2,0.2,0.3,0.5,0.4,0.7s0.2,0.4,0.3,0.6c0.1,0.2,0.2,0.4,0.3,0.6
		c0.1,0.3,0.2,0.5,0.3,0.8c0,0,0,0,0,0.1c0.2,0.8,0.4,1.6,0.5,2.5c0,0.2,0,0.4,0,0.5s0,0.2-0.1,0.2h-0.1c-0.5,0-1,0-1.5,0
		c-0.2,0-0.2-0.1-0.3-0.3c0-0.3,0-0.6-0.1-0.9c0-0.3-0.1-0.5-0.1-0.8c0-0.2-0.1-0.4-0.2-0.6s-0.2-0.5-0.3-0.7
		c-0.1-0.2-0.2-0.5-0.3-0.7c-0.1-0.2-0.2-0.3-0.3-0.5c-0.1-0.1-0.2-0.2-0.2-0.4c-0.3-0.5-0.7-1-1.2-1.5c-0.3-0.2-0.5-0.5-0.8-0.7
		c-0.2-0.2-0.4-0.3-0.7-0.5c-0.2-0.1-0.3-0.2-0.5-0.3c-0.2-0.1-0.4-0.2-0.7-0.3c-0.3-0.1-0.6-0.2-0.9-0.3c-0.4-0.1-0.9-0.2-1.3-0.3
		c-0.3-0.1-0.6,0-0.9-0.1c-0.2,0-0.2,0-0.2-0.2C257.3,334.2,257.3,333.9,257.4,333.6C257.3,333.6,257.3,333.6,257.4,333.6z"/>
	<path fill="#F3FBFE" d="M263.2,343.2c-0.3,0-0.5,0-0.8,0c-0.1,0-0.2,0-0.2-0.2c0-0.4-0.1-0.7-0.2-1.1c-0.1-0.3-0.2-0.6-0.3-0.9
		c-0.1-0.2-0.2-0.3-0.2-0.5c-0.3-0.5-0.6-0.9-1.1-1.3c-0.2-0.2-0.5-0.4-0.7-0.5s-0.4-0.2-0.5-0.3c-0.2-0.1-0.5-0.1-0.7-0.2
		c-0.3-0.1-0.6-0.1-1-0.1c-0.2,0-0.2,0-0.2-0.2c0-0.5,0-1,0-1.6c0-0.2,0.1-0.3,0.3-0.3c0.4,0.1,0.8,0.1,1.2,0.2
		c0.3,0.1,0.6,0.2,0.9,0.3c0.2,0.1,0.4,0.2,0.6,0.3c0.1,0.1,0.3,0.1,0.4,0.2c0.2,0.1,0.4,0.2,0.6,0.4c0.2,0.2,0.4,0.4,0.6,0.6
		c0.3,0.2,0.5,0.5,0.7,0.8c0.2,0.2,0.3,0.5,0.5,0.7c0.2,0.3,0.3,0.6,0.5,0.9c0.1,0.2,0.2,0.4,0.2,0.7c0.1,0.2,0.1,0.3,0.1,0.5
		c0,0.1,0,0.1,0.1,0.2c0,0.4,0.1,0.8,0.1,1.2c0,0.1,0,0.2-0.1,0.2s-0.1,0-0.2,0C263.7,343.2,263.5,343.2,263.2,343.2z"/>
	<path fill="#F3FBFE" d="M258.7,343.2c-0.7,0-1.4-0.7-1.4-1.4c0-0.8,0.7-1.4,1.4-1.4c0.8,0,1.4,0.6,1.4,1.4
		C260.1,342.5,259.5,343.2,258.7,343.2z"/>
</g>
<g>
	<path fill="#2C7A8C" d="M205.9,386.8c0-0.2,0-0.5,0-0.7s0.1-0.2,0.2-0.2c0.1,0,0.3,0,0.4,0c0.4,0,0.7,0.1,1.1,0.1
		c0.3,0.1,0.7,0.2,1,0.2c0.1,0,0.2,0,0.2,0.1c0.3,0.1,0.5,0.2,0.8,0.3c0.2,0.1,0.3,0.1,0.5,0.2c0.3,0.1,0.6,0.3,0.9,0.5
		c0.3,0.2,0.6,0.4,0.9,0.6c0.4,0.3,0.8,0.7,1.1,1s0.6,0.7,0.9,1.1c0.2,0.2,0.3,0.4,0.4,0.7c0.1,0.2,0.2,0.3,0.3,0.5s0.2,0.4,0.3,0.6
		s0.2,0.5,0.3,0.7c0,0,0,0,0,0.1c0.2,0.8,0.4,1.5,0.4,2.3c0,0.2,0,0.3,0,0.5c0,0.1,0,0.2-0.1,0.2h-0.1c-0.5,0-0.9,0-1.4,0
		c-0.2,0-0.2,0-0.2-0.2c0-0.3,0-0.5-0.1-0.8c0-0.2-0.1-0.5-0.1-0.7s-0.1-0.4-0.1-0.6c-0.1-0.2-0.1-0.4-0.2-0.6
		c-0.1-0.2-0.2-0.4-0.3-0.6s-0.2-0.3-0.3-0.5c-0.1-0.1-0.1-0.2-0.2-0.3c-0.3-0.5-0.7-0.9-1.1-1.3c-0.2-0.2-0.5-0.4-0.8-0.6
		c-0.2-0.2-0.4-0.3-0.6-0.4c-0.1-0.1-0.3-0.2-0.4-0.2c-0.2-0.1-0.4-0.2-0.6-0.3c-0.3-0.1-0.5-0.2-0.8-0.3c-0.4-0.1-0.8-0.2-1.2-0.3
		c-0.3,0-0.5,0-0.8-0.1c-0.2,0-0.2,0-0.2-0.2C205.9,387.2,205.9,387,205.9,386.8L205.9,386.8z"/>
	<path fill="#2C7A8C" d="M211.3,395.6c-0.2,0-0.5,0-0.7,0c-0.1,0-0.2,0-0.2-0.1c0-0.3-0.1-0.7-0.2-1c-0.1-0.3-0.2-0.5-0.3-0.8
		c-0.1-0.2-0.1-0.3-0.2-0.4c-0.2-0.5-0.6-0.8-1-1.2c-0.2-0.2-0.4-0.3-0.6-0.5c-0.2-0.1-0.3-0.2-0.5-0.2c-0.2-0.1-0.4-0.1-0.6-0.2
		c-0.3-0.1-0.6-0.1-0.9-0.1c-0.2,0-0.2,0-0.2-0.2c0-0.5,0-1,0-1.4c0-0.2,0-0.3,0.3-0.2c0.4,0.1,0.8,0.1,1.1,0.2s0.6,0.2,0.9,0.3
		c0.2,0.1,0.4,0.2,0.6,0.2c0.1,0.1,0.3,0.1,0.4,0.2c0.2,0.1,0.4,0.2,0.5,0.4c0.2,0.2,0.4,0.3,0.6,0.5c0.2,0.2,0.5,0.5,0.7,0.7
		s0.3,0.4,0.4,0.6c0.2,0.3,0.3,0.5,0.4,0.8c0.1,0.2,0.2,0.4,0.2,0.6c0,0.1,0.1,0.3,0.1,0.4s0,0.1,0,0.2c0,0.4,0.1,0.7,0.1,1.1
		c0,0.1,0,0.1-0.1,0.2c-0.1,0-0.1,0-0.2,0C211.8,395.6,211.5,395.6,211.3,395.6z"/>
	<path fill="#2C7A8C" d="M207.1,395.6c-0.6,0-1.3-0.6-1.3-1.3c0-0.7,0.6-1.3,1.3-1.3s1.3,0.6,1.3,1.3
		C208.5,395,207.9,395.6,207.1,395.6z"/>
</g>
<ellipse fill="#0BB7E4" cx="187.2" cy="370.3" rx="0.8" ry="0.6"/>
<ellipse fill="#0BB7E4" cx="195.2" cy="370.3" rx="0.8" ry="0.6"/>
<path fill="#0BB7E4" d="M185.8,368.9c-0.4,0.4-0.6,0.9-0.6,1.4s0.2,1,0.6,1.4c0.4,0.4,0.9,0.5,1.4,0.5c1.1,0,2-0.9,2-1.9
	c0-1.1-0.9-1.9-2-1.9C186.5,368.3,186,368.5,185.8,368.9z M186.2,371.2c-0.2-0.2-0.4-0.6-0.4-0.9s0.1-0.8,0.4-0.9
	c0.2-0.2,0.6-0.4,1-0.4c0.8,0,1.4,0.6,1.4,1.4s-0.6,1.4-1.4,1.4C186.8,371.5,186.4,371.4,186.2,371.2z"/>
<path fill="#0BB7E4" d="M193.8,368.9c-0.4,0.4-0.6,0.9-0.6,1.4s0.2,1,0.6,1.4s0.9,0.5,1.4,0.5c1.1,0,2-0.9,2-1.9
	c0-1.1-0.9-1.9-2-1.9C194.5,368.3,194.2,368.5,193.8,368.9z M194.2,371.2c-0.2-0.2-0.4-0.6-0.4-0.9s0.1-0.8,0.4-0.9
	c0.2-0.2,0.6-0.4,1-0.4c0.8,0,1.4,0.6,1.4,1.4s-0.6,1.4-1.4,1.4C194.8,371.5,194.4,371.4,194.2,371.2z"/>
<path fill="#0BB7E4" d="M198.3,367.6c0.1-0.5,0.4-1,0.8-1.2h-2.8h-0.1c-0.1-0.2-1.1-1.5-5.1-1.5c-4.4,0-5.1,1.5-5.1,1.5h-2.9
	c0.4,0.4,0.6,0.9,0.8,1.4c-0.5,0.8-0.9,1.5-0.9,2.4c0,2.2,1.9,4,4.1,4c1.2,0,2.4-0.5,3.1-1.4l0.9,1.2l0.8-1.4
	c0.8,0.9,1.9,1.5,3.1,1.5c2.2,0,4.1-1.8,4.1-4C199.3,369.3,198.9,368.4,198.3,367.6z M187.2,373.4c-1.9,0-3.2-1.4-3.2-3.3
	c0-1.7,1.5-3.2,3.2-3.2c1.9,0,3.3,1.4,3.3,3.2C190.4,372,188.9,373.4,187.2,373.4z M187.2,366.5c0,0,1-1.1,3.9-1.1h0.2
	c2.8,0,3.9,1.1,3.9,1.1s-3-0.5-4,3.1C190.2,366,187.2,366.5,187.2,366.5z M195.2,373.4c-1.9,0-3.2-1.4-3.2-3.3
	c0-1.7,1.5-3.2,3.2-3.2c1.9,0,3.3,1.4,3.3,3.2S196.9,373.4,195.2,373.4z"/>
<ellipse fill="#2C7A8C" cx="187.2" cy="390.4" rx="0.8" ry="0.6"/>
<ellipse fill="#2C7A8C" cx="195.2" cy="390.4" rx="0.8" ry="0.6"/>
<path fill="#2C7A8C" d="M185.8,389c-0.4,0.4-0.6,0.9-0.6,1.4s0.2,1,0.6,1.4c0.4,0.4,0.9,0.5,1.4,0.5c1.1,0,2-0.9,2-1.9
	c0-1.1-0.9-1.9-2-1.9C186.5,388.5,186,388.7,185.8,389z M186.2,391.3c-0.2-0.2-0.4-0.6-0.4-0.9s0.1-0.8,0.4-0.9
	c0.2-0.2,0.6-0.4,1-0.4c0.8,0,1.4,0.6,1.4,1.4s-0.6,1.4-1.4,1.4C186.8,391.8,186.4,391.5,186.2,391.3z"/>
<path fill="#2C7A8C" d="M193.8,389c-0.4,0.4-0.6,0.9-0.6,1.4s0.2,1,0.6,1.4s0.9,0.5,1.4,0.5c1.1,0,2-0.9,2-1.9c0-1.1-0.9-1.9-2-1.9
	C194.5,388.5,194.2,388.7,193.8,389z M194.2,391.3c-0.2-0.2-0.4-0.6-0.4-0.9s0.1-0.8,0.4-0.9c0.2-0.2,0.6-0.4,1-0.4
	c0.8,0,1.4,0.6,1.4,1.4s-0.6,1.4-1.4,1.4C194.8,391.8,194.4,391.5,194.2,391.3z"/>
<path fill="#2C7A8C" d="M198.3,387.8c0.1-0.5,0.4-1,0.8-1.2h-2.8h-0.1c-0.1-0.3-1.1-1.5-5.1-1.5c-4.4,0-5.1,1.5-5.1,1.5h-2.9
	c0.4,0.4,0.6,0.9,0.8,1.4c-0.5,0.8-0.9,1.5-0.9,2.4c0,2.2,1.9,4,4.1,4c1.2,0,2.4-0.5,3.1-1.4l0.9,1.2l0.8-1.4
	c0.8,0.9,1.9,1.5,3.1,1.5c2.2,0,4.1-1.8,4.1-4C199.3,389.4,198.9,388.5,198.3,387.8z M187.2,393.7c-1.9,0-3.2-1.4-3.2-3.2
	c0-1.8,1.5-3.2,3.2-3.2c1.9,0,3.3,1.4,3.3,3.2C190.4,392.2,188.9,393.7,187.2,393.7z M187.2,386.7c0,0,1-1.1,3.9-1.1h0.2
	c2.8,0,3.9,1.1,3.9,1.1s-3-0.5-4,3.1C190.2,386.2,187.2,386.7,187.2,386.7z M195.2,393.7c-1.9,0-3.2-1.4-3.2-3.2
	c0-1.8,1.5-3.2,3.2-3.2c1.9,0,3.3,1.4,3.3,3.2C198.4,392.2,196.9,393.7,195.2,393.7z"/>
</svg>
